<?xml version="1.0" encoding="UTF-8" standalone="no"?>
<svg
    version="1.2"
    viewBox="0 0 512 512"
    width="512"
    height="512"
    id="svg1"
    sodipodi:docname="create-mastery-logo.svg"
    inkscape:version="1.4.3 (0d15f75, 2025-12-25)"
    xmlns:inkscape="http://www.inkscape.org/namespaces/inkscape"
    xmlns:sodipodi="http://sodipodi.sourceforge.net/DTD/sodipodi-0.dtd"
    xmlns="http://www.w3.org/2000/svg"
    xmlns:svg="http://www.w3.org/2000/svg">
    <sodipodi:namedview
        id="namedview1"
        pagecolor="#ffffff"
        bordercolor="#000000"
        borderopacity="0.25"
        inkscape:showpageshadow="2"
        inkscape:pageopacity="0.0"
        inkscape:pagecheckerboard="0"
        inkscape:deskcolor="#d1d1d1"
        inkscape:zoom="0.54146047"
        inkscape:cx="372.14166"
        inkscape:cy="364.75424"
        inkscape:window-width="1906"
        inkscape:window-height="1034"
        inkscape:window-x="0"
        inkscape:window-y="0"
        inkscape:window-maximized="1"
        inkscape:current-layer="svg1" />
    <defs
        id="defs1">
    </defs>
    <style
        id="style1" />
    <path
        fill="currentColor"
        d="m -159.24765,255.66913 0.32948,-622.37304 0.33367,621.71129 0.33367,621.71129 h 413.58908 413.58908 l 0.33368,-621.71129 0.33367,-621.71129 0.32947,622.37304 0.32947,622.37304 H 255.33825 -159.57712 Z m 373.55759,236.09735 c -8.83364,-5.45649 -12.4168,-13.08083 -12.52661,-26.65443 -0.0383,-4.73149 -0.43709,-11.66134 -0.88626,-15.39967 l -0.81666,-6.79696 -8.25452,-2.23439 c -4.53998,-1.22892 -14.10433,-5.16826 -21.25411,-8.7541 -7.14978,-3.58584 -13.47519,-6.5197 -14.05646,-6.5197 -0.58128,0 -6.27803,4.6537 -12.65944,10.34155 -6.38141,5.68786 -13.07513,11.34579 -14.87492,12.57319 -3.94768,2.6922 -11.80336,2.88652 -17.61519,0.43573 -4.59343,-1.937 -47.100342,-44.65737 -51.320074,-51.5778 -3.287151,-5.39097 -3.349036,-14.81931 -0.1318,-20.0802 2.107303,-3.44591 6.75465,-8.93962 19.640617,-23.21754 l 3.037063,-3.36513 -5.818965,-11.85505 c -3.200431,-6.52028 -7.105299,-16.1155 -8.677485,-21.3227 l -2.858519,-9.46765 -17.656198,-0.45856 c -17.424649,-0.45254 -17.72287,-0.51186 -22.740143,-4.52314 -9.641404,-7.70824 -9.845439,-8.74208 -9.426309,-47.7626 l 0.371881,-34.62177 4.09178,-5.08305 c 5.265929,-6.54165 10.571563,-8.16986 29.865187,-9.16515 l 15.42805,-0.79588 4.195899,-12.11945 c 2.307745,-6.66569 6.267778,-15.92314 8.800075,-20.57212 l 4.604175,-8.45267 -3.691283,-4.12052 C 77.049515,157.93044 72.903344,153.39613 69.866007,150.12048 57.499156,136.78332 54.590195,127.776 59.551364,118.18215 c 3.286854,-6.35607 46.520886,-50.497253 51.970976,-53.061449 9.70444,-4.565806 13.54849,-2.992308 31.71424,12.981698 6.96602,6.125548 13.14684,11.13736 13.73516,11.13736 0.58832,0 6.28543,-2.615007 12.66026,-5.811128 6.37482,-3.19612 15.84061,-7.162706 21.03507,-8.814634 l 9.44449,-3.003507 0.81259,-5.928521 c 0.44693,-3.260686 0.82568,-11.056653 0.84166,-17.324371 0.0344,-13.489945 2.67293,-20.617009 9.41204,-25.423472 4.41202,-3.146733 4.81787,-3.181746 41.51341,-3.581376 20.38181,-0.221966 38.8877,-0.06593 41.12419,0.346759 4.54106,0.837927 12.02967,7.494942 14.17407,12.600065 0.77133,1.836274 1.74735,11.375008 2.16895,21.197188 l 0.76653,17.858508 10.75714,3.475499 c 5.91642,1.911525 15.58522,5.935535 21.48623,8.942245 5.901,3.00671 11.23837,5.466745 11.86082,5.466745 0.62246,0 6.80549,-5.287651 13.74007,-11.750336 7.69024,-7.166911 14.55052,-12.391315 17.58744,-13.393587 9.29576,-3.067877 12.22981,-1.119692 39.29355,26.090544 13.60021,13.67383 25.36277,26.53811 26.13901,28.58728 2.14949,5.67437 1.72462,15.74037 -0.82187,19.47176 -1.22828,1.7998 -6.58843,8.1052 -11.91145,14.01202 -5.32302,5.90681 -9.67823,11.31104 -9.67823,12.00939 0,0.69834 2.31819,5.7495 5.15153,11.22479 2.83334,5.4753 6.49262,14.42007 8.13173,19.87727 l 2.9802,9.92219 18.30549,1.24876 c 19.6668,1.34164 22.25211,2.28191 28.21524,10.26181 2.5632,3.43009 2.75282,5.71258 3.12514,37.61763 0.218,18.68129 0.0693,35.26919 -0.33049,36.86201 -1.02448,4.08186 -6.91031,10.73616 -11.8041,13.34529 -2.94693,1.57115 -8.89769,2.41748 -20.60379,2.93032 l -16.46009,0.72111 -4.14956,11.91145 c -2.28226,6.55129 -6.0422,15.69489 -8.35543,20.3191 -2.31323,4.62422 -4.20587,9.03968 -4.20587,9.81215 0,1.17625 9.17109,12.19557 18.98292,22.80851 5.80753,6.2817 6.72486,18.87777 1.83669,25.22013 -5.75017,7.46079 -44.89853,46.85264 -49.21312,49.5192 -5.73952,3.54722 -13.38377,3.42957 -19.46533,-0.29958 -2.66491,-1.63409 -9.35899,-7.28898 -14.87574,-12.56641 -5.51675,-5.27743 -10.58839,-9.59533 -11.27032,-9.59533 -0.68192,0 -6.19707,2.50816 -12.25588,5.57369 -6.05881,3.06553 -15.7806,7.17118 -21.60398,9.12365 l -10.58795,3.54996 -0.81666,16.35361 c -0.44917,8.99448 -1.29055,17.54475 -1.86974,19.00059 -2.16755,5.44834 -6.29692,10.06658 -11.26902,12.60316 -4.74672,2.42159 -7.87637,2.61666 -41.90948,2.61208 -33.49177,-0.005 -37.13462,-0.22419 -40.75016,-2.45749 z M 291.07259,381.8869 c 27.88711,-7.45075 55.48922,-27.23947 72.03716,-51.64544 32.50213,-47.93626 28.42378,-113.19916 -9.73731,-155.81907 -25.27247,-28.22536 -60.5001,-44.13111 -97.78067,-44.14928 -49.33977,-0.0241 -94.60278,27.65519 -115.78015,70.80189 -6.5286,13.30133 -9.04948,20.97374 -11.53876,35.1187 -6.97773,39.6498 4.85322,79.44588 32.36021,108.85094 18.44247,19.71506 41.20383,32.49256 68.89705,38.6766 13.03028,2.90974 47.64803,1.87792 61.54247,-1.83434 z"
        id="path1" />
</svg>
